<?xml version="1.0" encoding="UTF-8"?>
<svg xmlns="http://www.w3.org/2000/svg" width="1000" height="1210" viewBox="0 0 1000 1210" font-family="Segoe UI, Roboto, Helvetica, Arial, sans-serif" role="img" aria-label="Neumonía afebril del lactante de 2 meses con madre con leucorrea: Chlamydia, azitromicina"><title>Neumonía afebril del lactante de 2 meses con madre con leucorrea: Chlamydia, azitromicina</title><rect x="0.75" y="0.75" width="998.5" height="1208.5" rx="14" fill="#ffffff" stroke="#e2e8f0" stroke-width="1.5"/><rect x="16.0" y="16.0" width="968.0" height="56.0" rx="10" fill="#0f766e" stroke="none" stroke-width="1.5"/><text x="36" y="51.0" font-size="20" font-weight="800" fill="#ffffff">MedQuiz<tspan fill="#5eead4">Plus</tspan></text><line x1="170.0" y1="34.0" x2="170.0" y2="54.0" stroke="#5eead4" stroke-width="1.5"/><text x="184.0" y="48.0" font-size="11.5" font-weight="700" font-style="normal" fill="#ffffff" text-anchor="start" data-max="542"><tspan x="184.0" dy="0">Neumonía del lactante · neumonía afebril</tspan></text><rect x="442.0" y="32.0" width="113.0" height="24.0" rx="12" fill="#134e4a" stroke="none" stroke-width="1.5"/><text x="498.5" y="48.0" font-size="10" font-weight="700" font-style="normal" fill="#99f6e4" text-anchor="middle" data-max="97"><tspan x="498.5" dy="0">PEDIATRÍA ENAM</tspan></text><rect x="40.0" y="90.0" width="560.0" height="167.0" rx="10" fill="#ffffff" stroke="#0f766e" stroke-width="2"/><rect x="56.0" y="102.0" width="101.2" height="18.0" rx="9" fill="#f0fdfa" stroke="#99f6e4" stroke-width="1"/><text x="64.0" y="115.0" font-size="10" font-weight="800" font-style="normal" fill="#0f766e" text-anchor="start" data-max="0"><tspan x="64.0" dy="0">TEMA GENERAL</tspan></text><text x="58.0" y="144.0" font-size="15" font-weight="800" font-style="normal" fill="#134e4a" text-anchor="start" data-max="524"><tspan x="58.0" dy="0">Neumonía afebril del lactante</tspan></text><text x="58.0" y="168.0" font-size="12" font-weight="400" font-style="normal" fill="#475569" text-anchor="start" data-max="524"><tspan x="58.0" dy="0">Entre las 2 semanas y los 4 meses, Chlamydia trachomatis adquirida en el parto.</tspan><tspan x="58.0" dy="17">Tos que empeora de a poco, taquipnea y crépitos, sin fiebre.</tspan></text><rect x="620.0" y="90.0" width="340.0" height="167.0" rx="10" fill="#f8fafc" stroke="#cbd5e1" stroke-width="1.5"/><rect x="621.0" y="91.0" width="6.0" height="165.0" rx="3" fill="#f59e0b" stroke="none" stroke-width="1.5"/><text x="640.0" y="115.0" font-size="10" font-weight="800" font-style="normal" fill="#b45309" text-anchor="start" data-max="0"><tspan x="640.0" dy="0">CASO CLÍNICO</tspan></text><text x="640.0" y="138.0" font-size="12.5" font-weight="700" font-style="normal" fill="#0f172a" text-anchor="start" data-max="304"><tspan x="640.0" dy="0">Lactante de 2 meses, parto vaginal</tspan></text><text x="640.0" y="159.0" font-size="11.5" font-weight="400" font-style="normal" fill="#475569" text-anchor="start" data-max="304"><tspan x="640.0" dy="0">Madre con leucorrea en el III trimestre; tos progresiva</tspan><tspan x="640.0" dy="16">de 6 días.</tspan><tspan x="640.0" dy="16">Sin fiebre ni catarro; FR 70, SatO₂ 92 %, retracciones,</tspan><tspan x="640.0" dy="16">crépitos en bases.</tspan></text><rect x="640.0" y="228.0" width="30.0" height="18.0" rx="9" fill="#fffbeb" stroke="#f59e0b" stroke-width="1.5"/><text x="655.0" y="241.0" font-size="10" font-weight="800" font-style="normal" fill="#b45309" text-anchor="middle" data-max="0"><tspan x="655.0" dy="0">◆</tspan></text><text x="678.0" y="241.0" font-size="10.5" font-weight="700" font-style="normal" fill="#0f766e" text-anchor="start" data-max="260"><tspan x="678.0" dy="0">Marca dónde cae este caso</tspan></text><text x="40.0" y="289.0" font-size="11.5" font-weight="800" font-style="normal" fill="#64748b" text-anchor="start" data-max="900"><tspan x="40.0" dy="0">¿QUÉ GERMEN Y QUÉ ANTIBIÓTICO?</tspan></text><polygon points="220,336.0 260,301.0 740,301.0 780,336.0 740,371.0 260,371.0" fill="#fffbeb" stroke="#f59e0b" stroke-width="2"/><circle cx="282.0" cy="336.0" r="13" fill="#f59e0b" stroke="none" stroke-width="0"/><text x="282.0" y="341.5" font-size="16" font-weight="800" font-style="normal" fill="#ffffff" text-anchor="middle" data-max="0"><tspan x="282.0" dy="0">?</tspan></text><text x="525.0" y="341.0" font-size="13.5" font-weight="700" font-style="normal" fill="#78350f" text-anchor="middle" data-max="410"><tspan x="525.0" dy="0">Lactante de 1-4 meses con neumonía: ¿tiene fiebre?</tspan></text><line x1="500.0" y1="371.0" x2="500.0" y2="391.0" stroke="#0f766e" stroke-width="2"/><line x1="190.0" y1="391.0" x2="662.0" y2="391.0" stroke="#0f766e" stroke-width="2"/><line x1="190.0" y1="391.0" x2="190.0" y2="420.0" stroke="#0f766e" stroke-width="2"/><polygon points="185.0,419.0 195.0,419.0 190.0,427.0" fill="#0f766e"/><line x1="662.0" y1="391.0" x2="662.0" y2="420.0" stroke="#ea580c" stroke-width="2"/><polygon points="657.0,419.0 667.0,419.0 662.0,427.0" fill="#ea580c"/><rect x="105.2" y="399.0" width="169.7" height="20.0" rx="10" fill="#64748b" stroke="none" stroke-width="1.5"/><text x="190.0" y="413.0" font-size="11" font-weight="700" font-style="normal" fill="#ffffff" text-anchor="middle" data-max="0"><tspan x="190.0" dy="0">Con fiebre y aspecto tóxico</tspan></text><rect x="566.0" y="399.0" width="191.9" height="20.0" rx="10" fill="#ea580c" stroke="none" stroke-width="1.5"/><text x="662.0" y="413.0" font-size="11" font-weight="700" font-style="normal" fill="#ffffff" text-anchor="middle" data-max="0"><tspan x="662.0" dy="0">Sin fiebre, madre con leucorrea</tspan></text><rect x="40.0" y="427.0" width="300.0" height="85.0" rx="10" fill="#ffffff" stroke="#cbd5e1" stroke-width="1.5"/><rect x="41.0" y="428.0" width="6.0" height="83.0" rx="3" fill="#0f766e" stroke="none" stroke-width="1.5"/><text x="58.0" y="451.0" font-size="12.5" font-weight="800" font-style="normal" fill="#0f172a" text-anchor="start" data-max="270"><tspan x="58.0" dy="0">Bacteriana típica</tspan></text><text x="58.0" y="472.0" font-size="11.5" font-weight="400" font-style="normal" fill="#475569" text-anchor="start" data-max="270"><tspan x="58.0" dy="0">Menor de 2 meses: ampicilina + gentamicina EV.</tspan><tspan x="58.0" dy="16">Buscar sepsis.</tspan></text><rect x="364.0" y="427.0" width="596.0" height="376.0" rx="10" fill="#f0fdfa" stroke="#0f766e" stroke-width="2.2"/><rect x="844.6" y="416.0" width="90.8" height="22.0" rx="11" fill="#fffbeb" stroke="#f59e0b" stroke-width="1.5"/><text x="890.0" y="431.0" font-size="10" font-weight="800" font-style="normal" fill="#b45309" text-anchor="middle" data-max="0"><tspan x="890.0" dy="0">◆ ESTE CASO</tspan></text><text x="382.0" y="453.0" font-size="13" font-weight="800" font-style="normal" fill="#134e4a" text-anchor="start" data-max="560"><tspan x="382.0" dy="0">Chlamydia trachomatis: azitromicina VO</tspan></text><text x="382.0" y="475.0" font-size="11.5" font-weight="400" font-style="normal" fill="#475569" text-anchor="start" data-max="560"><tspan x="382.0" dy="0">Tos en accesos que empeora de a poco; puede haber conjuntivitis previa.</tspan><tspan x="382.0" dy="16">Rx: infiltrado intersticial difuso con hiperinsuflación.</tspan></text><g transform="translate(527.0,511.0) scale(0.9)"><rect x="0" y="0" width="300" height="280" rx="8" fill="#0b1220"/><path d="M40 40 C40 20 130 16 140 40 L140 240 C100 250 50 246 30 230 C24 170 26 90 40 40 Z" fill="#1f2937" stroke="none" stroke-width="0" stroke-linejoin="round" /><path d="M260 40 C260 20 170 16 160 40 L160 240 C200 250 250 246 270 230 C276 170 274 90 260 40 Z" fill="#1f2937" stroke="none" stroke-width="0" stroke-linejoin="round" /><path d="M34 60 Q90 40 146 70" fill="none" stroke="#475569" stroke-width="3"/><path d="M266 60 Q210 40 154 70" fill="none" stroke="#475569" stroke-width="3"/><path d="M36 90 Q90 70 146 100" fill="none" stroke="#475569" stroke-width="3"/><path d="M264 90 Q210 70 154 100" fill="none" stroke="#475569" stroke-width="3"/><path d="M38 120 Q90 100 146 130" fill="none" stroke="#475569" stroke-width="3"/><path d="M262 120 Q210 100 154 130" fill="none" stroke="#475569" stroke-width="3"/><path d="M40 150 Q90 130 146 160" fill="none" stroke="#475569" stroke-width="3"/><path d="M260 150 Q210 130 154 160" fill="none" stroke="#475569" stroke-width="3"/><path d="M42 180 Q90 160 146 190" fill="none" stroke="#475569" stroke-width="3"/><path d="M258 180 Q210 160 154 190" fill="none" stroke="#475569" stroke-width="3"/><path d="M44 210 Q90 190 146 220" fill="none" stroke="#475569" stroke-width="3"/><path d="M256 210 Q210 190 154 220" fill="none" stroke="#475569" stroke-width="3"/><rect x="140" y="10" width="20" height="260" fill="#64748b"/><path d="M126 120 C110 150 112 210 140 232 L200 232 C226 214 218 150 170 128 Z" fill="#94a3b8" stroke="none" stroke-width="0" stroke-linejoin="round" /><path d="M30 236 Q80 212 140 238 M160 238 Q220 212 270 236" fill="none" stroke="#cbd5e1" stroke-width="4" stroke-linejoin="round" /><text x="14" y="18" font-size="12" font-weight="800" fill="#94a3b8" text-anchor="start" data-max="0">D</text><text x="286" y="18" font-size="12" font-weight="800" fill="#94a3b8" text-anchor="end" data-max="0">I</text><circle cx="187" cy="146" r="1.8" fill="#e2e8f0" opacity="0.7"/><circle cx="76" cy="156" r="1.8" fill="#e2e8f0" opacity="0.7"/><circle cx="225" cy="62" r="1.8" fill="#e2e8f0" opacity="0.7"/><circle cx="41" cy="197" r="1.8" fill="#e2e8f0" opacity="0.7"/><circle cx="189" cy="91" r="1.8" fill="#e2e8f0" opacity="0.7"/><circle cx="136" cy="133" r="1.8" fill="#e2e8f0" opacity="0.7"/><circle cx="246" cy="134" r="1.8" fill="#e2e8f0" opacity="0.7"/><circle cx="101" cy="77" r="1.8" fill="#e2e8f0" opacity="0.7"/><circle cx="226" cy="203" r="1.8" fill="#e2e8f0" opacity="0.7"/><circle cx="90" cy="180" r="1.8" fill="#e2e8f0" opacity="0.7"/><circle cx="230" cy="61" r="1.8" fill="#e2e8f0" opacity="0.7"/><circle cx="113" cy="154" r="1.8" fill="#e2e8f0" opacity="0.7"/><circle cx="194" cy="55" r="1.8" fill="#e2e8f0" opacity="0.7"/><circle cx="123" cy="133" r="1.8" fill="#e2e8f0" opacity="0.7"/><circle cx="234" cy="205" r="1.8" fill="#e2e8f0" opacity="0.7"/><circle cx="109" cy="212" r="1.8" fill="#e2e8f0" opacity="0.7"/><circle cx="203" cy="191" r="1.8" fill="#e2e8f0" opacity="0.7"/><circle cx="83" cy="215" r="1.8" fill="#e2e8f0" opacity="0.7"/><circle cx="250" cy="67" r="1.8" fill="#e2e8f0" opacity="0.7"/><circle cx="53" cy="88" r="1.8" fill="#e2e8f0" opacity="0.7"/><circle cx="259" cy="127" r="1.8" fill="#e2e8f0" opacity="0.7"/><circle cx="100" cy="103" r="1.8" fill="#e2e8f0" opacity="0.7"/><circle cx="214" cy="118" r="1.8" fill="#e2e8f0" opacity="0.7"/><circle cx="74" cy="153" r="1.8" fill="#e2e8f0" opacity="0.7"/><circle cx="221" cy="209" r="1.8" fill="#e2e8f0" opacity="0.7"/><circle cx="105" cy="213" r="1.8" fill="#e2e8f0" opacity="0.7"/><circle cx="248" cy="224" r="1.8" fill="#e2e8f0" opacity="0.7"/><circle cx="104" cy="79" r="1.8" fill="#e2e8f0" opacity="0.7"/><circle cx="248" cy="220" r="1.8" fill="#e2e8f0" opacity="0.7"/><circle cx="127" cy="150" r="1.8" fill="#e2e8f0" opacity="0.7"/><circle cx="234" cy="87" r="1.8" fill="#e2e8f0" opacity="0.7"/><circle cx="120" cy="151" r="1.8" fill="#e2e8f0" opacity="0.7"/><circle cx="192" cy="61" r="1.8" fill="#e2e8f0" opacity="0.7"/><circle cx="122" cy="224" r="1.8" fill="#e2e8f0" opacity="0.7"/><circle cx="173" cy="191" r="1.8" fill="#e2e8f0" opacity="0.7"/><circle cx="79" cy="77" r="1.8" fill="#e2e8f0" opacity="0.7"/><circle cx="193" cy="185" r="1.8" fill="#e2e8f0" opacity="0.7"/><circle cx="124" cy="58" r="1.8" fill="#e2e8f0" opacity="0.7"/><circle cx="224" cy="58" r="1.8" fill="#e2e8f0" opacity="0.7"/><circle cx="109" cy="108" r="1.8" fill="#e2e8f0" opacity="0.7"/><circle cx="250" cy="223" r="1.8" fill="#e2e8f0" opacity="0.7"/><circle cx="89" cy="226" r="1.8" fill="#e2e8f0" opacity="0.7"/><circle cx="194" cy="64" r="1.8" fill="#e2e8f0" opacity="0.7"/><circle cx="98" cy="56" r="1.8" fill="#e2e8f0" opacity="0.7"/><circle cx="183" cy="122" r="1.8" fill="#e2e8f0" opacity="0.7"/><circle cx="99" cy="77" r="1.8" fill="#e2e8f0" opacity="0.7"/><circle cx="168" cy="203" r="1.8" fill="#e2e8f0" opacity="0.7"/><circle cx="70" cy="219" r="1.8" fill="#e2e8f0" opacity="0.7"/><circle cx="252" cy="116" r="1.8" fill="#e2e8f0" opacity="0.7"/><circle cx="84" cy="142" r="1.8" fill="#e2e8f0" opacity="0.7"/><circle cx="227" cy="155" r="1.8" fill="#e2e8f0" opacity="0.7"/><circle cx="94" cy="159" r="1.8" fill="#e2e8f0" opacity="0.7"/><circle cx="256" cy="139" r="1.8" fill="#e2e8f0" opacity="0.7"/><circle cx="81" cy="177" r="1.8" fill="#e2e8f0" opacity="0.7"/><circle cx="187" cy="103" r="1.8" fill="#e2e8f0" opacity="0.7"/><circle cx="134" cy="142" r="1.8" fill="#e2e8f0" opacity="0.7"/><circle cx="218" cy="52" r="1.8" fill="#e2e8f0" opacity="0.7"/><circle cx="80" cy="152" r="1.8" fill="#e2e8f0" opacity="0.7"/><circle cx="166" cy="158" r="1.8" fill="#e2e8f0" opacity="0.7"/><circle cx="101" cy="61" r="1.8" fill="#e2e8f0" opacity="0.7"/><circle cx="225" cy="132" r="1.8" fill="#e2e8f0" opacity="0.7"/><circle cx="105" cy="112" r="1.8" fill="#e2e8f0" opacity="0.7"/><circle cx="233" cy="180" r="1.8" fill="#e2e8f0" opacity="0.7"/><circle cx="42" cy="61" r="1.8" fill="#e2e8f0" opacity="0.7"/><circle cx="230" cy="220" r="1.8" fill="#e2e8f0" opacity="0.7"/><circle cx="64" cy="130" r="1.8" fill="#e2e8f0" opacity="0.7"/><circle cx="222" cy="106" r="1.8" fill="#e2e8f0" opacity="0.7"/><circle cx="75" cy="105" r="1.8" fill="#e2e8f0" opacity="0.7"/><circle cx="200" cy="155" r="1.8" fill="#e2e8f0" opacity="0.7"/><circle cx="69" cy="116" r="1.8" fill="#e2e8f0" opacity="0.7"/><circle cx="240" cy="55" r="1.8" fill="#e2e8f0" opacity="0.7"/><circle cx="95" cy="179" r="1.8" fill="#e2e8f0" opacity="0.7"/><circle cx="194" cy="89" r="1.8" fill="#e2e8f0" opacity="0.7"/><circle cx="117" cy="92" r="1.8" fill="#e2e8f0" opacity="0.7"/><circle cx="182" cy="127" r="1.8" fill="#e2e8f0" opacity="0.7"/><circle cx="107" cy="68" r="1.8" fill="#e2e8f0" opacity="0.7"/><circle cx="196" cy="109" r="1.8" fill="#e2e8f0" opacity="0.7"/><circle cx="120" cy="127" r="1.8" fill="#e2e8f0" opacity="0.7"/><circle cx="248" cy="80" r="1.8" fill="#e2e8f0" opacity="0.7"/><circle cx="72" cy="164" r="1.8" fill="#e2e8f0" opacity="0.7"/><circle cx="251" cy="129" r="1.8" fill="#e2e8f0" opacity="0.7"/><circle cx="62" cy="71" r="1.8" fill="#e2e8f0" opacity="0.7"/><circle cx="216" cy="84" r="1.8" fill="#e2e8f0" opacity="0.7"/><circle cx="117" cy="198" r="1.8" fill="#e2e8f0" opacity="0.7"/><circle cx="182" cy="99" r="1.8" fill="#e2e8f0" opacity="0.7"/><circle cx="117" cy="163" r="1.8" fill="#e2e8f0" opacity="0.7"/><circle cx="243" cy="111" r="1.8" fill="#e2e8f0" opacity="0.7"/><circle cx="52" cy="101" r="1.8" fill="#e2e8f0" opacity="0.7"/><circle cx="242" cy="98" r="1.8" fill="#e2e8f0" opacity="0.7"/><circle cx="73" cy="123" r="1.8" fill="#e2e8f0" opacity="0.7"/><circle cx="205" cy="122" r="1.8" fill="#e2e8f0" opacity="0.7"/><circle cx="128" cy="77" r="1.8" fill="#e2e8f0" opacity="0.7"/><circle cx="164" cy="216" r="1.8" fill="#e2e8f0" opacity="0.7"/><circle cx="124" cy="224" r="1.8" fill="#e2e8f0" opacity="0.7"/><circle cx="207" cy="217" r="1.8" fill="#e2e8f0" opacity="0.7"/><circle cx="129" cy="89" r="1.8" fill="#e2e8f0" opacity="0.7"/><circle cx="237" cy="197" r="1.8" fill="#e2e8f0" opacity="0.7"/><circle cx="104" cy="141" r="1.8" fill="#e2e8f0" opacity="0.7"/><circle cx="192" cy="110" r="1.8" fill="#e2e8f0" opacity="0.7"/><circle cx="62" cy="62" r="1.8" fill="#e2e8f0" opacity="0.7"/><circle cx="222" cy="101" r="1.8" fill="#e2e8f0" opacity="0.7"/><circle cx="118" cy="58" r="1.8" fill="#e2e8f0" opacity="0.7"/><circle cx="253" cy="172" r="1.8" fill="#e2e8f0" opacity="0.7"/><circle cx="129" cy="208" r="1.8" fill="#e2e8f0" opacity="0.7"/><circle cx="252" cy="152" r="1.8" fill="#e2e8f0" opacity="0.7"/><circle cx="41" cy="181" r="1.8" fill="#e2e8f0" opacity="0.7"/><circle cx="181" cy="103" r="1.8" fill="#e2e8f0" opacity="0.7"/><circle cx="104" cy="142" r="1.8" fill="#e2e8f0" opacity="0.7"/><circle cx="205" cy="215" r="1.8" fill="#e2e8f0" opacity="0.7"/><circle cx="99" cy="110" r="1.8" fill="#e2e8f0" opacity="0.7"/><circle cx="189" cy="202" r="1.8" fill="#e2e8f0" opacity="0.7"/><circle cx="86" cy="188" r="1.8" fill="#e2e8f0" opacity="0.7"/><circle cx="198" cy="85" r="1.8" fill="#e2e8f0" opacity="0.7"/><circle cx="91" cy="194" r="1.8" fill="#e2e8f0" opacity="0.7"/><circle cx="181" cy="189" r="1.8" fill="#e2e8f0" opacity="0.7"/><circle cx="128" cy="192" r="1.8" fill="#e2e8f0" opacity="0.7"/><circle cx="245" cy="51" r="1.8" fill="#e2e8f0" opacity="0.7"/><circle cx="100" cy="202" r="1.8" fill="#e2e8f0" opacity="0.7"/><circle cx="169" cy="98" r="1.8" fill="#e2e8f0" opacity="0.7"/><circle cx="66" cy="143" r="1.8" fill="#e2e8f0" opacity="0.7"/><circle cx="205" cy="133" r="1.8" fill="#e2e8f0" opacity="0.7"/><circle cx="115" cy="50" r="1.8" fill="#e2e8f0" opacity="0.7"/><circle cx="169" cy="72" r="1.8" fill="#e2e8f0" opacity="0.7"/><circle cx="52" cy="62" r="1.8" fill="#e2e8f0" opacity="0.7"/><circle cx="260" cy="200" r="1.8" fill="#e2e8f0" opacity="0.7"/><circle cx="48" cy="138" r="1.8" fill="#e2e8f0" opacity="0.7"/><circle cx="195" cy="105" r="1.8" fill="#e2e8f0" opacity="0.7"/><circle cx="74" cy="164" r="1.8" fill="#e2e8f0" opacity="0.7"/><circle cx="221" cy="114" r="1.8" fill="#e2e8f0" opacity="0.7"/><circle cx="58" cy="108" r="1.8" fill="#e2e8f0" opacity="0.7"/><circle cx="176" cy="148" r="1.8" fill="#e2e8f0" opacity="0.7"/><circle cx="109" cy="117" r="1.8" fill="#e2e8f0" opacity="0.7"/><circle cx="172" cy="81" r="1.8" fill="#e2e8f0" opacity="0.7"/><circle cx="76" cy="156" r="1.8" fill="#e2e8f0" opacity="0.7"/><circle cx="241" cy="117" r="1.8" fill="#e2e8f0" opacity="0.7"/><circle cx="117" cy="160" r="1.8" fill="#e2e8f0" opacity="0.7"/><circle cx="206" cy="116" r="1.8" fill="#e2e8f0" opacity="0.7"/><circle cx="88" cy="174" r="1.8" fill="#e2e8f0" opacity="0.7"/><circle cx="205" cy="172" r="1.8" fill="#e2e8f0" opacity="0.7"/><circle cx="84" cy="93" r="1.8" fill="#e2e8f0" opacity="0.7"/><circle cx="217" cy="172" r="1.8" fill="#e2e8f0" opacity="0.7"/><circle cx="47" cy="125" r="1.8" fill="#e2e8f0" opacity="0.7"/><circle cx="206" cy="205" r="1.8" fill="#e2e8f0" opacity="0.7"/><circle cx="130" cy="116" r="1.8" fill="#e2e8f0" opacity="0.7"/><circle cx="252" cy="189" r="1.8" fill="#e2e8f0" opacity="0.7"/><circle cx="65" cy="132" r="1.8" fill="#e2e8f0" opacity="0.7"/><circle cx="176" cy="193" r="1.8" fill="#e2e8f0" opacity="0.7"/><circle cx="104" cy="206" r="1.8" fill="#e2e8f0" opacity="0.7"/><circle cx="242" cy="167" r="1.8" fill="#e2e8f0" opacity="0.7"/><circle cx="110" cy="149" r="1.8" fill="#e2e8f0" opacity="0.7"/><circle cx="174" cy="153" r="1.8" fill="#e2e8f0" opacity="0.7"/><circle cx="40" cy="75" r="1.8" fill="#e2e8f0" opacity="0.7"/><circle cx="240" cy="58" r="1.8" fill="#e2e8f0" opacity="0.7"/><circle cx="49" cy="67" r="1.8" fill="#e2e8f0" opacity="0.7"/><circle cx="250" cy="82" r="1.8" fill="#e2e8f0" opacity="0.7"/><circle cx="42" cy="198" r="1.8" fill="#e2e8f0" opacity="0.7"/><circle cx="176" cy="199" r="1.8" fill="#e2e8f0" opacity="0.7"/><circle cx="105" cy="197" r="1.8" fill="#e2e8f0" opacity="0.7"/><circle cx="257" cy="152" r="1.8" fill="#e2e8f0" opacity="0.7"/><circle cx="117" cy="56" r="1.8" fill="#e2e8f0" opacity="0.7"/><circle cx="239" cy="140" r="1.8" fill="#e2e8f0" opacity="0.7"/><circle cx="109" cy="69" r="1.8" fill="#e2e8f0" opacity="0.7"/><circle cx="237" cy="214" r="1.8" fill="#e2e8f0" opacity="0.7"/><circle cx="46" cy="107" r="1.8" fill="#e2e8f0" opacity="0.7"/><circle cx="219" cy="196" r="1.8" fill="#e2e8f0" opacity="0.7"/><circle cx="63" cy="82" r="1.8" fill="#e2e8f0" opacity="0.7"/><circle cx="188" cy="158" r="1.8" fill="#e2e8f0" opacity="0.7"/><circle cx="112" cy="119" r="1.8" fill="#e2e8f0" opacity="0.7"/><circle cx="200" cy="120" r="1.8" fill="#e2e8f0" opacity="0.7"/><circle cx="74" cy="124" r="1.8" fill="#e2e8f0" opacity="0.7"/><circle cx="172" cy="138" r="1.8" fill="#e2e8f0" opacity="0.7"/><circle cx="133" cy="123" r="1.8" fill="#e2e8f0" opacity="0.7"/><circle cx="237" cy="78" r="1.8" fill="#e2e8f0" opacity="0.7"/><circle cx="106" cy="183" r="1.8" fill="#e2e8f0" opacity="0.7"/><circle cx="230" cy="141" r="1.8" fill="#e2e8f0" opacity="0.7"/><circle cx="86" cy="163" r="1.8" fill="#e2e8f0" opacity="0.7"/><circle cx="252" cy="76" r="1.8" fill="#e2e8f0" opacity="0.7"/><circle cx="49" cy="182" r="1.8" fill="#e2e8f0" opacity="0.7"/><circle cx="254" cy="141" r="1.8" fill="#e2e8f0" opacity="0.7"/><circle cx="83" cy="177" r="1.8" fill="#e2e8f0" opacity="0.7"/><circle cx="182" cy="97" r="1.8" fill="#e2e8f0" opacity="0.7"/><circle cx="59" cy="153" r="1.8" fill="#e2e8f0" opacity="0.7"/><circle cx="195" cy="91" r="1.8" fill="#e2e8f0" opacity="0.7"/><circle cx="106" cy="218" r="1.8" fill="#e2e8f0" opacity="0.7"/><circle cx="193" cy="174" r="1.8" fill="#e2e8f0" opacity="0.7"/><circle cx="80" cy="200" r="1.8" fill="#e2e8f0" opacity="0.7"/><circle cx="221" cy="97" r="1.8" fill="#e2e8f0" opacity="0.7"/><circle cx="61" cy="54" r="1.8" fill="#e2e8f0" opacity="0.7"/><circle cx="211" cy="117" r="1.8" fill="#e2e8f0" opacity="0.7"/><circle cx="57" cy="113" r="1.8" fill="#e2e8f0" opacity="0.7"/><circle cx="196" cy="186" r="1.8" fill="#e2e8f0" opacity="0.7"/><circle cx="54" cy="224" r="1.8" fill="#e2e8f0" opacity="0.7"/><circle cx="211" cy="155" r="1.8" fill="#e2e8f0" opacity="0.7"/><circle cx="85" cy="197" r="1.8" fill="#e2e8f0" opacity="0.7"/><circle cx="245" cy="148" r="1.8" fill="#e2e8f0" opacity="0.7"/><circle cx="86" cy="177" r="1.8" fill="#e2e8f0" opacity="0.7"/><circle cx="248" cy="120" r="1.8" fill="#e2e8f0" opacity="0.7"/><circle cx="110" cy="219" r="1.8" fill="#e2e8f0" opacity="0.7"/><circle cx="210" cy="90" r="1.8" fill="#e2e8f0" opacity="0.7"/><circle cx="63" cy="176" r="1.8" fill="#e2e8f0" opacity="0.7"/><circle cx="230" cy="219" r="1.8" fill="#e2e8f0" opacity="0.7"/><circle cx="122" cy="93" r="1.8" fill="#e2e8f0" opacity="0.7"/><circle cx="183" cy="96" r="1.8" fill="#e2e8f0" opacity="0.7"/><circle cx="58" cy="174" r="1.8" fill="#e2e8f0" opacity="0.7"/><circle cx="248" cy="208" r="1.8" fill="#e2e8f0" opacity="0.7"/><circle cx="64" cy="202" r="1.8" fill="#e2e8f0" opacity="0.7"/><circle cx="195" cy="124" r="1.8" fill="#e2e8f0" opacity="0.7"/><circle cx="110" cy="65" r="1.8" fill="#e2e8f0" opacity="0.7"/><circle cx="173" cy="197" r="1.8" fill="#e2e8f0" opacity="0.7"/><circle cx="68" cy="113" r="1.8" fill="#e2e8f0" opacity="0.7"/><circle cx="221" cy="169" r="1.8" fill="#e2e8f0" opacity="0.7"/><circle cx="41" cy="109" r="1.8" fill="#e2e8f0" opacity="0.7"/><circle cx="207" cy="136" r="1.8" fill="#e2e8f0" opacity="0.7"/><circle cx="60" cy="153" r="1.8" fill="#e2e8f0" opacity="0.7"/><circle cx="258" cy="119" r="1.8" fill="#e2e8f0" opacity="0.7"/><circle cx="92" cy="71" r="1.8" fill="#e2e8f0" opacity="0.7"/><circle cx="191" cy="167" r="1.8" fill="#e2e8f0" opacity="0.7"/><circle cx="51" cy="206" r="1.8" fill="#e2e8f0" opacity="0.7"/><circle cx="253" cy="67" r="1.8" fill="#e2e8f0" opacity="0.7"/><circle cx="130" cy="116" r="1.8" fill="#e2e8f0" opacity="0.7"/><circle cx="240" cy="183" r="1.8" fill="#e2e8f0" opacity="0.7"/><circle cx="68" cy="169" r="1.8" fill="#e2e8f0" opacity="0.7"/><circle cx="228" cy="192" r="1.8" fill="#e2e8f0" opacity="0.7"/><circle cx="65" cy="183" r="1.8" fill="#e2e8f0" opacity="0.7"/><circle cx="258" cy="168" r="1.8" fill="#e2e8f0" opacity="0.7"/><circle cx="91" cy="70" r="1.8" fill="#e2e8f0" opacity="0.7"/><circle cx="212" cy="112" r="1.8" fill="#e2e8f0" opacity="0.7"/><circle cx="109" cy="169" r="1.8" fill="#e2e8f0" opacity="0.7"/><circle cx="220" cy="82" r="1.8" fill="#e2e8f0" opacity="0.7"/><circle cx="102" cy="161" r="1.8" fill="#e2e8f0" opacity="0.7"/><circle cx="182" cy="207" r="1.8" fill="#e2e8f0" opacity="0.7"/><circle cx="103" cy="72" r="1.8" fill="#e2e8f0" opacity="0.7"/><circle cx="255" cy="75" r="1.8" fill="#e2e8f0" opacity="0.7"/><circle cx="72" cy="177" r="1.8" fill="#e2e8f0" opacity="0.7"/><circle cx="223" cy="148" r="1.8" fill="#e2e8f0" opacity="0.7"/><circle cx="102" cy="131" r="1.8" fill="#e2e8f0" opacity="0.7"/><circle cx="195" cy="81" r="1.8" fill="#e2e8f0" opacity="0.7"/><circle cx="47" cy="176" r="1.8" fill="#e2e8f0" opacity="0.7"/><circle cx="238" cy="146" r="1.8" fill="#e2e8f0" opacity="0.7"/><circle cx="111" cy="113" r="1.8" fill="#e2e8f0" opacity="0.7"/><circle cx="190" cy="117" r="1.8" fill="#e2e8f0" opacity="0.7"/><circle cx="124" cy="57" r="1.8" fill="#e2e8f0" opacity="0.7"/><circle cx="213" cy="94" r="1.8" fill="#e2e8f0" opacity="0.7"/><circle cx="114" cy="112" r="1.8" fill="#e2e8f0" opacity="0.7"/><circle cx="197" cy="121" r="1.8" fill="#e2e8f0" opacity="0.7"/><circle cx="92" cy="186" r="1.8" fill="#e2e8f0" opacity="0.7"/><circle cx="199" cy="199" r="1.8" fill="#e2e8f0" opacity="0.7"/><circle cx="51" cy="98" r="1.8" fill="#e2e8f0" opacity="0.7"/><circle cx="174" cy="70" r="1.8" fill="#e2e8f0" opacity="0.7"/><circle cx="115" cy="178" r="1.8" fill="#e2e8f0" opacity="0.7"/><circle cx="182" cy="83" r="1.8" fill="#e2e8f0" opacity="0.7"/><circle cx="80" cy="181" r="1.8" fill="#e2e8f0" opacity="0.7"/><circle cx="244" cy="182" r="1.8" fill="#e2e8f0" opacity="0.7"/><circle cx="97" cy="76" r="1.8" fill="#e2e8f0" opacity="0.7"/><circle cx="203" cy="84" r="1.8" fill="#e2e8f0" opacity="0.7"/><circle cx="91" cy="150" r="1.8" fill="#e2e8f0" opacity="0.7"/><circle cx="184" cy="94" r="1.8" fill="#e2e8f0" opacity="0.7"/><circle cx="115" cy="55" r="1.8" fill="#e2e8f0" opacity="0.7"/><circle cx="243" cy="207" r="1.8" fill="#e2e8f0" opacity="0.7"/><circle cx="131" cy="117" r="1.8" fill="#e2e8f0" opacity="0.7"/><path d="M90 149 l3 11" stroke="#cbd5e1" stroke-width="1" opacity="0.6"/><path d="M102 101 l9 -0" stroke="#cbd5e1" stroke-width="1" opacity="0.6"/><path d="M94 174 l-12 6" stroke="#cbd5e1" stroke-width="1" opacity="0.6"/><path d="M100 134 l1 -1" stroke="#cbd5e1" stroke-width="1" opacity="0.6"/><path d="M57 140 l-11 0" stroke="#cbd5e1" stroke-width="1" opacity="0.6"/><path d="M98 126 l2 11" stroke="#cbd5e1" stroke-width="1" opacity="0.6"/><path d="M120 73 l7 3" stroke="#cbd5e1" stroke-width="1" opacity="0.6"/><path d="M45 111 l-6 -10" stroke="#cbd5e1" stroke-width="1" opacity="0.6"/><path d="M88 208 l-4 9" stroke="#cbd5e1" stroke-width="1" opacity="0.6"/><path d="M103 73 l9 2" stroke="#cbd5e1" stroke-width="1" opacity="0.6"/><path d="M123 172 l6 -4" stroke="#cbd5e1" stroke-width="1" opacity="0.6"/><path d="M113 208 l9 -2" stroke="#cbd5e1" stroke-width="1" opacity="0.6"/><path d="M108 132 l-9 -11" stroke="#cbd5e1" stroke-width="1" opacity="0.6"/><path d="M47 84 l-8 -0" stroke="#cbd5e1" stroke-width="1" opacity="0.6"/><path d="M103 141 l-2 4" stroke="#cbd5e1" stroke-width="1" opacity="0.6"/><path d="M67 129 l6 -2" stroke="#cbd5e1" stroke-width="1" opacity="0.6"/><path d="M56 203 l5 -3" stroke="#cbd5e1" stroke-width="1" opacity="0.6"/><path d="M73 140 l2 -7" stroke="#cbd5e1" stroke-width="1" opacity="0.6"/><path d="M40 86 l7 -9" stroke="#cbd5e1" stroke-width="1" opacity="0.6"/><path d="M81 83 l-7 -8" stroke="#cbd5e1" stroke-width="1" opacity="0.6"/><path d="M76 79 l-11 -9" stroke="#cbd5e1" stroke-width="1" opacity="0.6"/><path d="M55 133 l-11 -11" stroke="#cbd5e1" stroke-width="1" opacity="0.6"/><path d="M80 119 l5 -11" stroke="#cbd5e1" stroke-width="1" opacity="0.6"/><path d="M76 117 l-11 11" stroke="#cbd5e1" stroke-width="1" opacity="0.6"/><path d="M60 66 l-1 -8" stroke="#cbd5e1" stroke-width="1" opacity="0.6"/><path d="M96 109 l-9 -11" stroke="#cbd5e1" stroke-width="1" opacity="0.6"/><path d="M105 97 l7 -1" stroke="#cbd5e1" stroke-width="1" opacity="0.6"/><path d="M124 101 l-6 -6" stroke="#cbd5e1" stroke-width="1" opacity="0.6"/><path d="M113 157 l-4 -10" stroke="#cbd5e1" stroke-width="1" opacity="0.6"/><path d="M101 215 l2 -12" stroke="#cbd5e1" stroke-width="1" opacity="0.6"/><path d="M43 65 l-8 -11" stroke="#cbd5e1" stroke-width="1" opacity="0.6"/><path d="M45 161 l10 -7" stroke="#cbd5e1" stroke-width="1" opacity="0.6"/><path d="M128 131 l7 10" stroke="#cbd5e1" stroke-width="1" opacity="0.6"/><path d="M125 56 l-5 3" stroke="#cbd5e1" stroke-width="1" opacity="0.6"/><path d="M125 65 l-5 8" stroke="#cbd5e1" stroke-width="1" opacity="0.6"/><path d="M50 116 l-4 4" stroke="#cbd5e1" stroke-width="1" opacity="0.6"/><path d="M124 80 l6 6" stroke="#cbd5e1" stroke-width="1" opacity="0.6"/><path d="M115 144 l10 -3" stroke="#cbd5e1" stroke-width="1" opacity="0.6"/><path d="M77 89 l7 -0" stroke="#cbd5e1" stroke-width="1" opacity="0.6"/><path d="M64 79 l5 3" stroke="#cbd5e1" stroke-width="1" opacity="0.6"/><path d="M104 116 l-0 -8" stroke="#cbd5e1" stroke-width="1" opacity="0.6"/><path d="M104 54 l-1 6" stroke="#cbd5e1" stroke-width="1" opacity="0.6"/><path d="M101 67 l-6 8" stroke="#cbd5e1" stroke-width="1" opacity="0.6"/><path d="M98 199 l9 -1" stroke="#cbd5e1" stroke-width="1" opacity="0.6"/><path d="M121 175 l-4 -3" stroke="#cbd5e1" stroke-width="1" opacity="0.6"/><path d="M46 118 l11 -9" stroke="#cbd5e1" stroke-width="1" opacity="0.6"/><path d="M91 69 l-10 4" stroke="#cbd5e1" stroke-width="1" opacity="0.6"/><path d="M62 58 l-8 3" stroke="#cbd5e1" stroke-width="1" opacity="0.6"/><path d="M93 52 l-6 11" stroke="#cbd5e1" stroke-width="1" opacity="0.6"/><path d="M60 146 l-2 7" stroke="#cbd5e1" stroke-width="1" opacity="0.6"/><path d="M94 184 l1 -7" stroke="#cbd5e1" stroke-width="1" opacity="0.6"/><path d="M56 63 l8 -9" stroke="#cbd5e1" stroke-width="1" opacity="0.6"/><path d="M42 214 l-7 9" stroke="#cbd5e1" stroke-width="1" opacity="0.6"/><path d="M48 129 l-7 8" stroke="#cbd5e1" stroke-width="1" opacity="0.6"/><path d="M95 159 l6 9" stroke="#cbd5e1" stroke-width="1" opacity="0.6"/><path d="M71 153 l-1 -9" stroke="#cbd5e1" stroke-width="1" opacity="0.6"/><path d="M115 151 l8 -7" stroke="#cbd5e1" stroke-width="1" opacity="0.6"/><path d="M89 129 l5 -10" stroke="#cbd5e1" stroke-width="1" opacity="0.6"/><path d="M71 132 l-10 1" stroke="#cbd5e1" stroke-width="1" opacity="0.6"/><path d="M106 122 l4 3" stroke="#cbd5e1" stroke-width="1" opacity="0.6"/></g><text x="382.0" y="785.0" font-size="11.5" font-weight="600" font-style="normal" fill="#475569" text-anchor="start" data-max="560"><tspan x="382.0" dy="0">Rx (esquema): infiltrado intersticial en ambos pulmones, sin consolidación.</tspan></text><text x="40.0" y="837.0" font-size="11" font-weight="800" font-style="normal" fill="#64748b" text-anchor="start" data-max="900"><tspan x="40.0" dy="0">QUÉ MÁS</tspan></text><rect x="40.0" y="847.0" width="297.3" height="69.0" rx="10" fill="#f0fdfa" stroke="#0f766e" stroke-width="2.2"/><rect x="41.0" y="848.0" width="6.0" height="67.0" rx="3" fill="#f59e0b" stroke="none" stroke-width="1.5"/><text x="58.0" y="871.0" font-size="12.5" font-weight="800" font-style="normal" fill="#134e4a" text-anchor="start" data-max="267"><tspan x="58.0" dy="0">Azitromicina VO</tspan></text><text x="58.0" y="892.0" font-size="11" font-weight="400" font-style="normal" fill="#475569" text-anchor="start" data-max="267"><tspan x="58.0" dy="0">20 mg/kg/día por 3 días.</tspan></text><rect x="237.5" y="836.0" width="90.8" height="22.0" rx="11" fill="#fffbeb" stroke="#f59e0b" stroke-width="1.5"/><text x="282.9" y="851.0" font-size="10" font-weight="800" font-style="normal" fill="#b45309" text-anchor="middle" data-max="0"><tspan x="282.9" dy="0">◆ ESTE CASO</tspan></text><rect x="351.3" y="847.0" width="297.3" height="69.0" rx="10" fill="#ffffff" stroke="#cbd5e1" stroke-width="1.5"/><rect x="352.3" y="848.0" width="6.0" height="67.0" rx="3" fill="#0f766e" stroke="none" stroke-width="1.5"/><text x="369.3" y="871.0" font-size="12.5" font-weight="800" font-style="normal" fill="#0f172a" text-anchor="start" data-max="267"><tspan x="369.3" dy="0">Soporte</tspan></text><text x="369.3" y="892.0" font-size="11" font-weight="400" font-style="normal" fill="#475569" text-anchor="start" data-max="267"><tspan x="369.3" dy="0">Oxígeno según saturación y trabajo respiratorio.</tspan></text><rect x="662.7" y="847.0" width="297.3" height="69.0" rx="10" fill="#ffffff" stroke="#cbd5e1" stroke-width="1.5"/><rect x="663.7" y="848.0" width="6.0" height="67.0" rx="3" fill="#0f766e" stroke="none" stroke-width="1.5"/><text x="680.7" y="871.0" font-size="12.5" font-weight="800" font-style="normal" fill="#0f172a" text-anchor="start" data-max="267"><tspan x="680.7" dy="0">La madre y su pareja</tspan></text><text x="680.7" y="892.0" font-size="11" font-weight="400" font-style="normal" fill="#475569" text-anchor="start" data-max="267"><tspan x="680.7" dy="0">Tratar la infección genital.</tspan></text><text x="40.0" y="956.0" font-size="11.5" font-weight="800" font-style="normal" fill="#64748b" text-anchor="start" data-max="900"><tspan x="40.0" dy="0">OPCIONES DE LA PREGUNTA</tspan></text><rect x="40.0" y="966.0" width="920.0" height="37.0" rx="10" fill="#f1f5f9" stroke="#cbd5e1" stroke-width="1.5"/><text x="125.0" y="988.5" font-size="11" font-weight="800" font-style="normal" fill="#64748b" text-anchor="middle" data-max="154"><tspan x="125.0" dy="0">Criterio</tspan></text><text x="303.8" y="988.5" font-size="12.5" font-weight="700" font-style="normal" fill="#0f172a" text-anchor="middle" data-max="168"><tspan x="303.8" dy="0">Ribavirina</tspan></text><text x="491.2" y="988.5" font-size="12.5" font-weight="700" font-style="normal" fill="#0f172a" text-anchor="middle" data-max="168"><tspan x="491.2" dy="0">Ampicilina EV</tspan></text><text x="678.8" y="988.5" font-size="12.5" font-weight="700" font-style="normal" fill="#0f172a" text-anchor="middle" data-max="168"><tspan x="678.8" dy="0">Gentamicina IM</tspan></text><rect x="775.5" y="969.0" width="181.5" height="31.0" rx="8" fill="#0f766e" stroke="none" stroke-width="1.5"/><text x="866.2" y="988.5" font-size="12.5" font-weight="700" font-style="normal" fill="#ffffff" text-anchor="middle" data-max="168"><tspan x="866.2" dy="0">Azitromicina VO</tspan></text><rect x="40.0" y="1003.0" width="920.0" height="34.0" rx="0" fill="#ffffff" stroke="#e2e8f0" stroke-width="1"/><rect x="775.5" y="1003.0" width="181.5" height="34.0" rx="0" fill="#f0fdfa" stroke="none" stroke-width="1.5"/><text x="54.0" y="1024.0" font-size="11.5" font-weight="700" font-style="normal" fill="#334155" text-anchor="start" data-max="146"><tspan x="54.0" dy="0">¿Cubre Chlamydia?</tspan></text><text x="303.8" y="1024.0" font-size="11.5" font-weight="400" font-style="normal" fill="#475569" text-anchor="middle" data-max="166"><tspan x="303.8" dy="0">No: es para VSR</tspan></text><text x="491.2" y="1024.0" font-size="11.5" font-weight="400" font-style="normal" fill="#475569" text-anchor="middle" data-max="166"><tspan x="491.2" dy="0">No</tspan></text><text x="678.8" y="1024.0" font-size="11.5" font-weight="400" font-style="normal" fill="#475569" text-anchor="middle" data-max="166"><tspan x="678.8" dy="0">No</tspan></text><text x="866.2" y="1024.0" font-size="11.5" font-weight="600" font-style="normal" fill="#134e4a" text-anchor="middle" data-max="166"><tspan x="866.2" dy="0">Sí</tspan></text><rect x="40.0" y="966.0" width="920.0" height="71.0" rx="10" fill="none" stroke="#cbd5e1" stroke-width="1.5"/><rect x="40.0" y="1061.0" width="920.0" height="131.0" rx="10" fill="#fffbeb" stroke="#fbbf24" stroke-width="1.5"/><text x="58.0" y="1089.0" font-size="12" font-weight="800" font-style="normal" fill="#b45309" text-anchor="start" data-max="884"><tspan x="58.0" dy="0">PUNTOS CLAVE ENAM:</tspan></text><text x="58.0" y="1111.0" font-size="12" font-weight="500" font-style="normal" fill="#92400e" text-anchor="start" data-max="884"><tspan x="58.0" dy="0">• Afebril + tos progresiva + infección genital materna = neumonía por Chlamydia trachomatis.</tspan><tspan x="58.0" dy="18">• Es intracelular: macrólido. Azitromicina oral 20 mg/kg/día por 3 días.</tspan><tspan x="58.0" dy="18">• Tratar también a la madre y a su pareja.</tspan></text><text x="58.0" y="1169.0" font-size="10.5" font-weight="400" font-style="italic" fill="#a16207" text-anchor="start" data-max="884"><tspan x="58.0" dy="0">Fuente: CDC, guía de ITS (2021); Nelson Tratado de Pediatría 22.ª ed. (2024).</tspan></text></svg>